<svg width="48" height="35" viewBox="0 0 48 35" fill="none" xmlns="http://www.w3.org/2000/svg">
<g clip-path="url(#clip0_26_1307)">
<path d="M44.4874 34.9535H3.51264C2.18079 34.952 0.903933 34.4222 -0.0377831 33.4804C-0.979499 32.5386 -1.50916 31.2617 -1.51056 29.9299V4.62427C-1.50916 3.29242 -0.979499 2.01551 -0.0377831 1.0737C0.903933 0.131895 2.18079 -0.397889 3.51264 -0.399414H44.4874C45.8192 -0.397889 47.0961 0.131895 48.0378 1.0737C48.9795 2.01551 49.5092 3.29242 49.5106 4.62427V29.9299C49.5092 31.2617 48.9795 32.5386 48.0378 33.4804C47.0961 34.4222 45.8192 34.952 44.4874 34.9535ZM3.51264 1.52059C2.68981 1.52148 1.90094 1.84877 1.31916 2.43064C0.737376 3.01252 0.410203 3.80144 0.409441 4.62427V29.9299C0.410203 30.7527 0.737376 31.5416 1.31916 32.1235C1.90094 32.7054 2.68981 33.0327 3.51264 33.0335H44.4874C45.3102 33.0327 46.0991 32.7054 46.6808 32.1235C47.2626 31.5416 47.5898 30.7527 47.5906 29.9299V4.62427C47.5898 3.80144 47.2626 3.01252 46.6808 2.43064C46.0991 1.84877 45.3102 1.52148 44.4874 1.52059H3.51264Z" fill="black"/>
<path d="M24 22.9263C23.766 22.9264 23.54 22.8411 23.3645 22.6863L0.228516 2.26324L1.49908 0.823242L24 20.6876L46.502 0.825643L47.7725 2.26564L24.6365 22.6887C24.4605 22.843 24.2341 22.9276 24 22.9263Z" fill="black"/>
<path d="M-0.293579 31.9385L15.2489 14.2294L16.6928 15.4966L1.15026 33.2057L-0.293579 31.9385Z" fill="black"/>
<path d="M31.3561 15.4783L32.8 14.2111L48.3428 31.9205L46.899 33.1877L31.3561 15.4783Z" fill="black"/>
</g>
<defs>
<clipPath id="clip0_26_1307">
<rect width="48" height="35" fill="white"/>
</clipPath>
</defs>
</svg>
